<svg xmlns="http://www.w3.org/2000/svg" version="1.1" xmlns:xlink="http://www.w3.org/1999/xlink" xmlns:svgjs="http://svgjs.dev/svgjs" width="1000" height="1843" viewBox="0 0 1000 1843"><g transform="matrix(1,0,0,1,-1.3048056604466183,0.7461538461537884)"><svg viewBox="0 0 134 247" data-background-color="#010536" preserveAspectRatio="xMidYMid meet" height="1843" width="1000" xmlns="http://www.w3.org/2000/svg" xmlns:xlink="http://www.w3.org/1999/xlink"><g id="tight-bounds" transform="matrix(1,0,0,1,0.17484411224998553,-0.09999999999999432)"><svg viewBox="0 0 133.65031192925022 247.2" height="247.2" width="133.65031192925022"><g><svg viewBox="0 0 248.09782082324455 458.88244046876514" height="247.2" width="133.65031192925022"><g transform="matrix(1,0,0,1,0,211.68244046876512)"><svg viewBox="0 0 248.09782082324455 247.2" height="247.2" width="248.09782082324455"><g id="textblocktransform"><svg viewBox="0 0 248.09782082324455 247.2" height="247.2" width="248.09782082324455" id="textblock"><g><svg viewBox="0 0 248.09782082324455 247.2" height="247.2" width="248.09782082324455"><g transform="matrix(1,0,0,1,0,0)"><svg width="248.09782082324455" viewBox="1.9500000476837158 -40.849998474121094 41.45000076293945 41.29999923706055" height="247.2" data-palette-color="#fbfbf8"><path d="M12.7 0.45L12.7 0.45Q9.2 0.45 6.88-1.05 4.55-2.55 3.35-5.2 2.15-7.85 1.95-11.35L1.95-11.35 6.95-12.7Q7.1-10.55 7.63-8.55 8.15-6.55 9.35-5.28 10.55-4 12.7-4L12.7-4Q14.9-4 16.03-5.23 17.15-6.45 17.15-8.75L17.15-8.75Q17.15-11.5 15.9-13.18 14.65-14.85 12.75-16.55L12.75-16.55 5.95-22.55Q3.95-24.3 3-26.38 2.05-28.45 2.05-31.5L2.05-31.5Q2.05-35.95 4.6-38.4 7.15-40.85 11.55-40.85L11.55-40.85Q13.95-40.85 15.78-40.23 17.6-39.6 18.82-38.3 20.05-37 20.78-35.02 21.5-33.05 21.75-30.4L21.75-30.4 16.95-29.1Q16.8-31.1 16.35-32.77 15.9-34.45 14.78-35.48 13.65-36.5 11.55-36.5L11.55-36.5Q9.45-36.5 8.28-35.38 7.1-34.25 7.1-32.05L7.1-32.05Q7.1-30.2 7.73-29 8.35-27.8 9.75-26.55L9.75-26.55 16.6-20.55Q18.9-18.55 20.65-15.78 22.4-13 22.4-9.2L22.4-9.2Q22.4-6.2 21.15-4.03 19.9-1.85 17.73-0.7 15.55 0.45 12.7 0.45ZM31.85 0L26.5 0 26.5-40.5 31.85-40.5 31.85-25.9Q33.3-27.3 35.1-28.3 36.9-29.3 39.1-29.3L39.1-29.3Q40.8-29.3 41.72-28.4 42.65-27.5 43.02-26.15 43.4-24.8 43.4-23.4L43.4-23.4 43.4 0 38.05 0 38.05-21.85Q38.05-23.4 37.6-24.25 37.15-25.1 35.75-25.1L35.75-25.1Q34.8-25.1 33.77-24.55 32.75-24 31.85-23.2L31.85-23.2 31.85 0Z" opacity="1" transform="matrix(1,0,0,1,0,0)" fill="#fbfbf8" class="undefined-text-0" data-fill-palette-color="primary" id="text-0"></path></svg></g></svg></g></svg></g></svg></g><g transform="matrix(1,0,0,1,47.38668377723971,0)"><svg viewBox="0 0 153.32445326876513 153.32445326876513" height="153.32445326876513" width="153.32445326876513"><g><svg></svg></g><g id="icon-0"><svg viewBox="0 0 153.32445326876513 153.32445326876513" height="153.32445326876513" width="153.32445326876513"><g><path xmlns="http://www.w3.org/2000/svg" d="M45.997 153.324c-25.404 0-45.997-20.594-45.997-45.997v-61.33c0-25.404 20.594-45.997 45.997-45.997h61.33c25.404 0 45.997 20.594 45.997 45.997v61.33c0 25.404-20.594 45.997-45.997 45.997z" fill="#ffff00" fill-rule="nonzero" stroke="none" stroke-width="1" stroke-linecap="butt" stroke-linejoin="miter" stroke-miterlimit="10" stroke-dasharray="" stroke-dashoffset="0" font-family="none" font-weight="none" font-size="none" text-anchor="none" style="mix-blend-mode: normal" data-fill-palette-color="accent"></path></g><g transform="matrix(1,0,0,1,30.664890653753027,40.886520871670704)"><svg viewBox="0 0 91.99467196125907 71.55141152542372" height="71.55141152542372" width="91.99467196125907"><g><svg xmlns:x="http://ns.adobe.com/Extensibility/1.0/" xmlns:i="http://ns.adobe.com/AdobeIllustrator/10.0/" xmlns:graph="http://ns.adobe.com/Graphs/1.0/" xmlns="http://www.w3.org/2000/svg" xmlns:xlink="http://www.w3.org/1999/xlink" version="1.1" x="0" y="0" viewBox="5 11 54 42" enable-background="new 0 0 64 64" xml:space="preserve" height="71.55141152542372" width="91.99467196125907" class="icon-s-0" data-fill-palette-color="quaternary" id="s-0"><g fill="#010536" data-fill-palette-color="quaternary"><g fill="#010536" data-fill-palette-color="quaternary"><path d="M11 39h42V17H11V39zM37.293 26.707c-0.391-0.391-0.391-1.023 0-1.414s1.023-0.391 1.414 0l2 2c0.391 0.391 0.391 1.023 0 1.414l-2 2C38.512 30.902 38.256 31 38 31s-0.512-0.098-0.707-0.293c-0.391-0.391-0.391-1.023 0-1.414L38.586 28 37.293 26.707zM29.105 31.553l4-8c0.248-0.494 0.848-0.694 1.342-0.447s0.694 0.848 0.447 1.342l-4 8C30.719 32.798 30.366 33 29.999 33c-0.15 0-0.303-0.034-0.446-0.105C29.059 32.647 28.858 32.047 29.105 31.553zM23.293 27.293l2-2c0.391-0.391 1.023-0.391 1.414 0s0.391 1.023 0 1.414L25.414 28l1.293 1.293c0.391 0.391 0.391 1.023 0 1.414C26.512 30.902 26.256 31 26 31s-0.512-0.098-0.707-0.293l-2-2C22.902 28.316 22.902 27.684 23.293 27.293z" fill="#010536" data-fill-palette-color="quaternary"></path><path d="M58 11H6c-0.552 0-1 0.448-1 1v32c0 0.553 0.448 1 1 1h25v6h-7c-0.552 0-1 0.447-1 1s0.448 1 1 1h16c0.553 0 1-0.447 1-1s-0.447-1-1-1h-7v-6h25c0.553 0 1-0.447 1-1V12C59 11.448 58.553 11 58 11zM55 40c0 0.553-0.447 1-1 1H10c-0.552 0-1-0.447-1-1V16c0-0.552 0.448-1 1-1h44c0.553 0 1 0.448 1 1V40z" fill="#010536" data-fill-palette-color="quaternary"></path></g></g></svg></g></svg></g></svg></g></svg></g><g></g></svg></g><defs></defs></svg><rect width="133.65031192925022" height="247.2" fill="none" stroke="none" visibility="hidden"></rect></g></svg></g></svg>