<svg xmlns="http://www.w3.org/2000/svg" version="1.1" xmlns:xlink="http://www.w3.org/1999/xlink" xmlns:svgjs="http://svgjs.dev/svgjs" width="1000" height="623" viewBox="0 0 1000 623"><g transform="matrix(1,0,0,1,-0.6060606060606233,0.2522267206477409)"><svg viewBox="0 0 396 247" data-background-color="#a437db" preserveAspectRatio="xMidYMid meet" height="623" width="1000" xmlns="http://www.w3.org/2000/svg" xmlns:xlink="http://www.w3.org/1999/xlink"><g id="tight-bounds" transform="matrix(1,0,0,1,0.2400000000000091,-0.09999999999999432)"><svg viewBox="0 0 395.52 247.2" height="247.2" width="395.52"><g><svg></svg></g><g><svg viewBox="0 0 395.52 247.2" height="247.2" width="395.52"><g transform="matrix(1,0,0,1,75.54432,53.613243076923084)"><svg viewBox="0 0 244.43135999999998 139.97351384615382" height="139.97351384615382" width="244.43135999999998"><g><svg viewBox="0 0 244.43135999999998 139.97351384615382" height="139.97351384615382" width="244.43135999999998"><g><svg viewBox="0 0 244.43135999999998 139.97351384615382" height="139.97351384615382" width="244.43135999999998"><g><svg viewBox="0 0 244.43135999999998 139.97351384615382" height="139.97351384615382" width="244.43135999999998"><g id="textblocktransform"><svg viewBox="0 0 244.43135999999998 139.97351384615382" height="139.97351384615382" width="244.43135999999998" id="textblock"><g><svg viewBox="0 0 244.43135999999998 139.97351384615382" height="139.97351384615382" width="244.43135999999998"><g transform="matrix(1,0,0,1,0,0)"><svg width="244.43135999999998" viewBox="2.1500000953674316 -36.25 64.3499984741211 36.849998474121094" height="139.97351384615382" data-palette-color="#ffffff"><path d="M18.15-35Q24.75-35 29-32.33 33.25-29.65 33.35-24.4L33.35-24.4 33.35-23.8 23-23.8 23-24Q23-25.5 21.9-26.5 20.8-27.5 18.55-27.5L18.55-27.5Q16.35-27.5 15.18-26.85 14-26.2 14-25.25L14-25.25Q14-23.9 15.6-23.25 17.2-22.6 20.75-21.9L20.75-21.9Q24.9-21.05 27.58-20.13 30.25-19.2 32.25-17.1 34.25-15 34.3-11.4L34.3-11.4Q34.3-5.3 30.18-2.35 26.05 0.6 19.15 0.6L19.15 0.6Q11.1 0.6 6.63-2.1 2.15-4.8 2.15-11.65L2.15-11.65 12.6-11.65Q12.6-9.05 13.95-8.18 15.3-7.3 18.15-7.3L18.15-7.3Q20.25-7.3 21.63-7.75 23-8.2 23-9.6L23-9.6Q23-10.85 21.48-11.48 19.95-12.1 16.5-12.8L16.5-12.8Q12.3-13.7 9.55-14.68 6.8-15.65 4.75-17.9 2.7-20.15 2.7-24L2.7-24Q2.7-29.65 7.08-32.33 11.45-35 18.15-35L18.15-35ZM49.05-23.65Q50.65-25.25 52.8-26.13 54.95-27 57.3-27L57.3-27Q61.9-27 64.2-24.45 66.5-21.9 66.5-17.1L66.5-17.1 66.5 0 56.55 0 56.55-15.9Q56.55-17.6 55.67-18.63 54.8-19.65 53.2-19.65L53.2-19.65Q51.35-19.65 50.2-18.45 49.05-17.25 49.05-15.5L49.05-15.5 49.05 0 39.1 0 39.1-36.25 49.05-36.25 49.05-23.65Z" opacity="1" transform="matrix(1,0,0,1,0,0)" fill="#ffffff" class="undefined-text-0" data-fill-palette-color="primary" id="text-0"></path></svg></g></svg></g></svg></g></svg></g></svg></g></svg></g></svg></g><path d="M251.399 47.613L251.399 3.315 10.828 3.315 10.828 243.885 251.399 243.885 251.399 199.587 238.776 199.587 238.776 231.262 23.451 231.262 23.451 15.938 238.776 15.938 238.776 47.613Z" fill="#ffffff" stroke="transparent" data-fill-palette-color="primary"></path></svg></g><defs></defs></svg><rect width="395.52" height="247.2" fill="none" stroke="none" visibility="hidden"></rect></g></svg></g></svg>